<?xml version="1.0" standalone="no"?>
<!DOCTYPE svg PUBLIC "-//W3C//DTD SVG 20010904//EN"
 "http://www.w3.org/TR/2001/REC-SVG-20010904/DTD/svg10.dtd">
<svg version="1.0" xmlns="http://www.w3.org/2000/svg"
 width="750.000000pt" height="750.000000pt" viewBox="0 0 750.000000 750.000000"
 preserveAspectRatio="xMidYMid meet">
<metadata>
Created by potrace 1.11, written by Peter Selinger 2001-2013
</metadata>
<g transform="translate(0.000000,750.000000) scale(0.100000,-0.100000)"
fill="#000000" stroke="none">
<path d="M2207 7186 c-88 -32 -178 -113 -240 -218 -20 -34 -65 -128 -98 -208
-92 -216 -140 -304 -230 -415 -44 -55 -90 -118 -101 -139 -21 -41 -21 -49 -2
-229 11 -103 -43 -305 -147 -549 -89 -209 -132 -280 -235 -388 -51 -53 -102
-116 -114 -141 -22 -43 -23 -47 -11 -164 15 -142 7 -197 -59 -397 -86 -268
-195 -500 -288 -621 -99 -128 -97 -123 -97 -287 0 -131 -3 -154 -29 -240 -85
-281 -245 -624 -380 -813 -47 -65 -93 -138 -102 -163 -16 -43 -16 -49 1 -125
18 -78 18 -83 -3 -247 -11 -92 -29 -192 -38 -222 -27 -86 -25 -291 4 -397 110
-409 457 -762 877 -890 l90 -28 2245 0 2245 0 99 34 c169 59 343 178 457 314
124 149 98 73 783 2332 344 1133 632 2087 641 2120 20 77 20 243 0 319 -23 87
-83 193 -145 256 -50 52 -170 130 -198 130 -8 0 -12 -25 -12 -73 0 -41 -9
-107 -19 -148 -11 -41 -321 -1068 -691 -2284 -457 -1504 -680 -2223 -697
-2249 -14 -22 -40 -53 -57 -69 -42 -39 -149 -92 -216 -106 -42 -9 -594 -11
-2265 -9 l-2210 3 -78 22 c-170 49 -280 133 -339 260 -24 51 -32 81 -32 129
-1 75 18 108 84 142 l44 22 2016 0 c1389 0 2050 3 2125 11 351 35 470 135 623
521 42 105 261 816 692 2239 348 1146 643 2126 656 2178 29 111 32 255 9 345
-41 158 -169 317 -309 386 -149 74 -35 70 -1989 70 -1497 0 -1765 -2 -1843
-15 -80 -13 -99 -13 -160 0 -86 18 -207 18 -257 1z m2006 -330 c37 -7 70 -16
73 -19 4 -3 -16 -97 -44 -209 l-50 -203 -56 3 c-53 4 -58 2 -91 -31 -42 -42
-44 -67 -13 -179 19 -71 20 -87 10 -136 -21 -102 -100 -190 -219 -245 -41 -19
-66 -22 -165 -22 -66 0 -121 4 -125 10 -5 6 -6 53 -3 105 5 88 7 95 25 92 138
-19 195 11 195 102 0 26 -15 52 -73 125 -41 50 -79 109 -85 130 -27 88 -4 206
57 294 105 154 334 228 564 183z m926 -31 c85 -20 157 -37 159 -39 3 -4 -411
-517 -469 -581 -17 -19 -16 -22 28 -95 25 -41 67 -103 94 -137 51 -66 55 -73
39 -73 -8 0 -296 -111 -331 -128 -9 -4 -65 125 -86 197 -10 34 -21 61 -24 61
-3 0 -19 -44 -36 -97 l-30 -98 -187 -3 c-175 -2 -187 -1 -182 15 25 87 153
597 186 743 23 102 45 199 49 215 l7 30 232 3 c128 1 232 1 232 -2 0 -2 -32
-93 -70 -201 -39 -109 -69 -199 -67 -201 3 -3 209 324 247 394 16 28 29 41 39
37 9 -2 86 -20 170 -40z m652 20 c63 -23 104 -58 133 -117 42 -83 32 -191 -29
-308 -23 -44 -92 -118 -138 -147 l-37 -23 17 -33 c23 -44 20 -123 -8 -182 -47
-100 -193 -204 -308 -220 -149 -20 -276 88 -257 221 8 59 49 136 96 178 l36
32 -30 37 c-24 30 -31 49 -34 98 -11 156 68 307 211 402 107 71 249 96 348 62z
m-2162 -12 c0 -5 -33 -98 -73 -208 -83 -229 -58 -206 -212 -191 l-81 7 -21
-56 c-12 -31 -22 -59 -22 -62 0 -2 52 -3 115 -1 63 1 115 2 115 0 0 -1 -21
-43 -46 -93 l-45 -91 -98 7 -99 7 -22 -67 c-12 -36 -19 -69 -16 -73 4 -3 62
-1 129 5 67 6 123 10 125 8 2 -2 -20 -46 -48 -99 l-52 -96 -294 0 c-190 0
-294 4 -294 10 0 6 49 205 109 443 60 237 115 460 121 495 l13 62 348 0 c192
0 349 -3 348 -7z m-821 -1308 c127 -30 201 -92 222 -186 31 -139 -88 -366
-227 -438 l-42 -21 23 -25 c59 -64 35 -178 -54 -259 -105 -95 -311 -133 -580
-106 -68 6 -127 13 -130 15 -4 2 20 106 52 232 32 125 87 351 123 502 35 151
70 278 77 282 7 4 44 10 83 13 38 4 86 8 105 10 66 8 285 -4 348 -19z m1400 0
c127 -30 201 -92 222 -186 31 -139 -88 -366 -227 -438 l-42 -21 23 -25 c59
-64 35 -178 -54 -259 -105 -95 -311 -133 -580 -106 -68 6 -127 13 -130 15 -4
2 20 106 52 232 32 125 87 351 122 502 36 151 71 278 78 282 6 4 44 10 83 13
38 4 86 8 105 10 66 8 285 -4 348 -19z m-600 -19 c-2 -8 -77 -235 -168 -505
l-165 -491 -188 0 c-175 0 -188 1 -183 18 3 9 60 236 127 505 l121 487 230 0
c194 0 229 -2 226 -14z m1402 5 c0 -5 -61 -188 -135 -407 -74 -219 -135 -401
-135 -406 0 -11 87 -10 179 2 41 6 76 8 78 7 1 -2 -18 -47 -45 -100 l-47 -96
-301 0 -300 -1 33 128 c45 169 166 662 193 785 l22 97 229 0 c133 0 229 -4
229 -9z m950 7 c0 -2 -33 -95 -74 -208 l-74 -205 -74 5 c-156 9 -147 11 -169
-45 -10 -27 -19 -54 -19 -58 0 -4 48 -8 108 -7 59 1 110 1 114 1 4 -1 -14 -43
-41 -93 -26 -51 -52 -92 -57 -91 -5 0 -48 4 -95 8 l-87 7 -22 -67 c-12 -36
-19 -69 -16 -73 4 -3 62 -1 129 5 67 6 123 10 124 9 1 -1 -20 -45 -48 -99
l-50 -97 -298 0 -298 0 126 505 126 505 348 0 c191 0 347 -1 347 -2z m-2273
-1684 c3 -10 -55 -106 -164 -270 -94 -140 -165 -254 -159 -254 6 0 112 23 235
52 213 49 225 50 237 33 9 -13 10 -23 3 -37 -15 -27 -907 -1187 -942 -1225
-34 -37 -80 -45 -91 -16 -5 11 73 162 228 447 130 236 234 432 232 433 -2 2
-101 -19 -221 -47 -120 -27 -229 -50 -242 -50 -34 0 -39 26 -14 79 41 85 454
836 469 854 13 15 37 17 219 17 176 0 204 -2 210 -16z m-1127 -293 c0 -16 8
-20 43 -23 41 -3 42 -4 42 -41 l0 -37 118 0 c67 0 117 -4 117 -10 0 -18 -23
-60 -34 -60 -6 -1 -186 -2 -401 -4 -366 -3 -394 -5 -448 -24 -125 -45 -230
-126 -299 -231 -133 -203 -104 -406 71 -493 46 -23 48 -23 588 -28 l543 -5
-20 -32 -20 -33 -250 0 c-221 0 -250 -2 -250 -16 0 -8 -13 -29 -29 -45 -22
-22 -39 -29 -68 -29 -27 0 -42 -6 -51 -20 -9 -15 -23 -20 -53 -20 -32 0 -42 4
-46 20 -4 14 -14 20 -33 20 -40 0 -63 25 -55 60 l6 28 -128 4 c-157 5 -209 24
-281 103 -167 183 -70 516 204 702 122 82 224 113 378 113 l105 0 15 28 c21
40 39 52 80 54 25 1 40 7 47 20 7 14 21 18 59 18 43 0 50 -3 50 -19z m1947 0
c4 -14 15 -21 42 -23 34 -3 36 -5 36 -39 l0 -37 125 -4 c133 -5 170 -15 243
-65 86 -59 134 -176 124 -298 -15 -167 -121 -330 -290 -447 -120 -82 -210
-108 -372 -108 l-104 0 -16 -29 c-20 -39 -52 -61 -90 -61 -19 0 -35 -7 -43
-20 -9 -15 -23 -20 -52 -20 -29 0 -43 5 -52 20 -8 12 -24 20 -40 20 -38 0 -61
26 -53 61 l7 29 -301 0 c-166 0 -301 2 -301 5 0 3 10 19 22 35 l22 30 556 0
c618 0 614 0 743 67 79 42 183 142 227 220 59 104 76 238 41 327 -22 57 -91
121 -153 142 -48 17 -94 19 -450 19 -218 0 -399 3 -401 5 -2 3 -7 20 -10 38
l-6 32 145 0 c129 0 145 2 151 18 13 38 46 62 83 62 24 0 43 7 55 20 26 28
105 29 112 1z m-2119 -463 c4 -31 -26 -53 -58 -43 -24 8 -26 32 -3 57 24 27
57 19 61 -14z m190 9 c5 -25 -27 -59 -52 -55 -28 4 -34 47 -10 65 25 18 58 13
62 -10z m1592 -7 c0 -37 -39 -62 -65 -40 -8 7 -15 17 -15 23 0 20 33 47 57 47
19 0 23 -5 23 -30z m188 3 c2 -14 -5 -27 -22 -38 -30 -20 -56 -14 -56 14 0 47
72 70 78 24z m-2018 -188 c0 -40 -73 -62 -83 -25 -7 29 38 63 64 49 10 -5 19
-16 19 -24z m1963 10 c8 -20 -22 -55 -47 -55 -36 0 -42 31 -12 57 27 23 50 22
59 -2z m-1780 3 c11 -33 -44 -77 -70 -56 -17 14 -16 33 3 52 18 19 61 21 67 4z
m1594 -5 c8 -20 -41 -65 -62 -57 -18 7 -20 45 -3 62 17 17 58 15 65 -5z"/>
<path d="M5522 6485 c-36 -40 -48 -88 -33 -128 9 -22 17 -27 43 -27 39 1 58
14 87 60 23 38 28 99 9 118 -25 25 -74 14 -106 -23z"/>
<path d="M5429 6109 c-25 -27 -29 -39 -27 -73 4 -54 35 -61 79 -17 26 26 30
37 27 73 -4 57 -35 64 -79 17z"/>
<path d="M2599 5134 c-6 -16 -22 -59 -34 -96 l-24 -68 30 0 c71 0 128 45 136
107 6 45 -14 69 -65 79 -28 6 -33 3 -43 -22z"/>
<path d="M2471 4758 c-27 -79 -26 -88 4 -88 62 0 125 52 125 104 0 26 -30 46
-70 46 -38 0 -38 0 -59 -62z"/>
<path d="M3999 5134 c-6 -16 -22 -59 -34 -96 l-24 -68 30 0 c71 0 128 45 136
107 6 45 -14 69 -65 79 -28 6 -33 3 -43 -22z"/>
<path d="M3871 4758 c-27 -79 -26 -88 4 -88 62 0 125 52 125 104 0 26 -30 46
-70 46 -38 0 -38 0 -59 -62z"/>
</g>
</svg>
